<?xml version="1.0" standalone="no"?>
<!DOCTYPE svg PUBLIC "-//W3C//DTD SVG 20010904//EN"
 "http://www.w3.org/TR/2001/REC-SVG-20010904/DTD/svg10.dtd">
<svg version="1.0" xmlns="http://www.w3.org/2000/svg"
 width="512.000000pt" height="512.000000pt" viewBox="0 0 512.000000 512.000000"
 preserveAspectRatio="xMidYMid meet">

<g transform="translate(0.000000,512.000000) scale(0.100000,-0.100000)"
fill="#000000" stroke="none">
<path d="M2346 4864 c-265 -36 -508 -130 -741 -287 -120 -81 -341 -302 -422
-422 -161 -238 -252 -476 -288 -752 -112 -852 426 -1934 1484 -2988 l181 -180
181 180 c363 362 633 685 878 1052 626 938 780 1777 452 2457 -155 321 -446
618 -760 775 -296 149 -647 209 -965 165z m482 -249 c286 -56 539 -191 747
-400 210 -209 343 -459 402 -752 24 -121 24 -393 0 -518 -116 -597 -569 -1050
-1162 -1161 -134 -25 -393 -26 -518 -1 -522 104 -943 474 -1107 975 -52 161
-65 248 -64 447 0 195 15 290 69 452 111 330 349 620 651 793 150 86 355 155
529 179 98 14 354 6 453 -14z"/>
<path d="M2420 4474 c-377 -48 -712 -251 -918 -556 -343 -508 -279 -1192 150
-1615 124 -122 204 -180 336 -247 494 -249 1098 -146 1484 252 148 153 237
299 303 495 84 254 84 535 0 792 -65 200 -160 352 -314 506 -185 185 -380 293
-631 350 -83 19 -331 33 -410 23z m-500 -802 c0 -375 -9 -338 98 -391 l62 -31
0 375 0 375 80 0 80 0 0 -375 0 -375 63 31 c106 53 97 16 97 391 l0 328 80 0
80 0 0 -331 c0 -234 -4 -344 -12 -373 -19 -63 -79 -114 -200 -171 l-107 -50
-1 -417 0 -418 -80 0 -80 0 0 418 -1 417 -107 50 c-121 57 -181 108 -200 171
-8 29 -12 139 -12 373 l0 331 80 0 80 0 0 -328z m1346 294 c172 -79 278 -307
246 -528 -23 -164 -129 -316 -256 -368 l-56 -24 0 -403 0 -403 -80 0 -80 0 0
403 0 402 -62 29 c-178 83 -283 304 -250 528 28 191 154 349 309 388 61 15
167 4 229 -24z"/>
</g>
</svg>
